<?xml version="1.0" encoding="utf-8"?>
<!-- Generator: Adobe Illustrator 23.0.1, SVG Export Plug-In . SVG Version: 6.00 Build 0)  -->
<svg version="1.1" id="RoundIcon" xmlns="http://www.w3.org/2000/svg" xmlns:xlink="http://www.w3.org/1999/xlink" x="0px" y="0px"
	 viewBox="0 0 1000 1000" style="enable-background:new 0 0 1000 1000;" xml:space="preserve">
<style type="text/css">
	.st0{fill:#F1BA2F;}
</style>
<circle class="st0" cx="500" cy="500" r="500"/>
<path d="M473.4,355.3c-1.2,17.3-2.3,34.5-3.5,51.8c-1.5,20.4-3,40.8-4.5,61.2c-1.5,20.1-3,40.2-4.5,60.2c-1.5,20.1-3,40.2-4.5,60.2
	c-0.4,5.6-0.8,11.3-1.3,18C604,524,752.2,441.7,900.9,359.1c23.3,61.9,46.4,123.4,69.7,185.4c-6.6,2.5-13,5-19.9,7.6
	c-20.3-54.1-40.6-107.9-61.1-162.4C736.8,474.8,584.4,559.5,431,644.7c6.2-83.9,12.4-166.7,18.6-250.5
	c-136.8,80.5-272.8,160.6-409.3,241c-3.7-6.3-7.1-12.1-10.8-18.3c11-6.5,21.8-13,32.7-19.3C197.6,517.8,333,437.9,468.5,358.2
	c1.4-0.8,2.6-1.9,3.9-2.9C472.8,355.3,473.1,355.3,473.4,355.3z"/>
</svg>
