<?xml version="1.0" encoding="utf-8"?>
<!-- Generator: Adobe Illustrator 23.0.1, SVG Export Plug-In . SVG Version: 6.00 Build 0)  -->
<svg version="1.1" id="Layer_1" xmlns="http://www.w3.org/2000/svg"
	xmlns:xlink="http://www.w3.org/1999/xlink" x="0px" y="0px"
	viewBox="0 0 884.4 384.9" style="enable-background:new 0 0 884.4 384.9;" xml:space="preserve">
<style type="text/css">
	.st0{fill:none;}
	.st1{font-family:'Outfit';}
	.st2{font-size:138px;}
</style>
<rect x="-29.2" y="285.9" class="st0" width="941.2" height="99"/>
<text transform="matrix(1 0 0 1 -3.4226 384.4203)" class="st1 st2">tres aventuras</text>
<path d="M417.2,0c-1.1,17.3-2.2,34.5-3.3,51.8c-1.4,20.4-2.8,40.8-4.2,61.2c-1.4,20.1-2.8,40.2-4.2,60.2
	c-1.4,20.1-2.8,40.2-4.2,60.2c-0.4,5.6-0.8,11.3-1.2,18c139.9-82.7,279.2-165,418.9-247.6c21.9,61.9,43.6,123.4,65.5,185.4
	c-6.2,2.5-12.2,5-18.7,7.6c-19.1-54.1-38.1-107.9-57.4-162.4c-143.6,84.9-286.8,169.5-431,254.7c5.8-83.9,11.7-166.7,17.5-250.5
	c-128.5,80.5-256.3,160.6-384.6,241c-3.5-6.3-6.7-12.1-10.1-18.3c10.3-6.5,20.5-13,30.7-19.3C158,162.3,285.3,82.6,412.6,2.9
	c1.3-0.8,2.4-1.9,3.7-2.9C416.6,0,416.9,0,417.2,0z"/>
</svg>