<?xml version="1.0" encoding="utf-8"?>
<!-- Generator: Adobe Illustrator 23.0.1, SVG Export Plug-In . SVG Version: 6.00 Build 0)  -->
<svg version="1.1" xmlns="http://www.w3.org/2000/svg" xmlns:xlink="http://www.w3.org/1999/xlink" x="0px" y="0px"
	 viewBox="0 0 982.2 324" style="enable-background:new 0 0 982.2 324;" xml:space="preserve">
<style type="text/css">
	.st0{display:none;}
	.st1{display:inline;fill:#FFFFFF;}
	.st2{display:inline;}
	.st3{display:none;fill:#F1BA2F;}
</style>
<g id="JPG_Original" class="st0">
	<path class="st1" d="M-949.9,764c-44.9,0-89.8,0-135,0c0-19,0-38,0-57c3.4,0,6.8,0,10.8,0c0,18.6,0,36.6,0,54.6
		c6.3,0,12.1,0,18.3,0c0-18.4,0-36.5,0-55c4.8,0,9.1,0,13.5,0c0-6.3,0-12.2,0-18.5c-4.6,0-8.9,0-13.8,0c0-7.8,0-15.2,0-22.7
		c-6.3,0-11.9,0-18.2,0c0,7.6,0,15,0,22.5c-4,0-7.3,0-10.7,0c0-126.3,0-252.5,0-379c152.3,0,304.7,0,457,0c-1.3,1-2.5,2-3.9,2.9
		c-135.5,79.7-270.9,159.5-406.4,239.2c-10.8,6.4-21.7,12.8-32.7,19.3c3.7,6.2,7.1,12,10.8,18.3c136.5-80.3,272.5-160.5,409.3-241
		c-6.2,83.8-12.4,166.6-18.6,250.5c153.4-85.2,305.8-169.8,458.7-254.7c20.5,54.5,40.7,108.3,61.1,162.4c6.9-2.6,13.3-5.1,19.9-7.6
		c-23.3-62.1-46.4-123.5-69.7-185.4c-148.7,82.6-296.9,164.9-445.8,247.6c0.5-6.7,0.9-12.4,1.3-18c1.5-20.1,3-40.2,4.5-60.2
		c1.5-20.1,3-40.2,4.5-60.2c1.5-20.4,3.1-40.8,4.5-61.2c1.2-17.3,2.3-34.5,3.5-51.8c168.9,0,337.8,0,507,0c0,130,0,260,0,390
		c-9.8-12.1-22.5-15.3-37.1-11.8c-9.9,2.4-17.3,11-17.9,19.8c-0.7,10.7,3.9,17.7,14.7,22.3c3.3,1.4,6.9,2.4,10.4,3.5
		c2.4,0.7,4.8,1.2,7.2,1.9c3.2,1,6.1,2.5,5.7,6.5c-0.4,3.7-3.1,5-6.4,6c-6.1,1.7-11-0.3-15.7-4c-1.1-0.9-3-1.9-4-1.5
		c-4.5,1.6-8.8,3.6-13.4,5.6c2.7,6.6,7.5,10.3,13.3,12.7c4.2,1.7,8.8,2.6,13.2,3.9c-24,0-48,0-72,0c4.5-2.8,9-5.6,13.6-8.5
		c0.2,2,0.5,4,0.7,6.3c6.1,0,12,0,18.4,0c0-23.7,0-47.2-0.1-70.6c0-0.9-1.3-2.6-2-2.7c-5.4-0.2-10.8-0.1-16.3-0.1
		c0.2,3.1,0.3,5.3,0.4,8.2c-6.5-6.3-13.1-10.1-21.4-10.3c-15.3-0.3-29.3,8.4-35.5,22.2c-6.3,14.1-3.4,31.6,7,42.8
		c6.1,6.6,13.8,10.1,22.1,12.7c-44,0-88,0-132,0c4.6-2.7,9.2-5.5,13.9-8.3c0.1,1.9,0.2,3.9,0.3,5.9c6.2,0,11.9,0,17.7,0
		c0-24.5,0-48.7,0-73.1c-6.1,0-11.8,0-17.9,0c0,2,0,3.6,0,5.2c0,10.8,0.1,21.6,0,32.5c-0.1,11.9-7.2,20-17,20
		c-10.5,0-18-8.3-18-20.3c0-9.2,0-18.3,0-27.5c0-3.3,0-6.5,0-10.3c-5.5,0-10.3,0.1-15.1,0c-2.9-0.1-3.7,1.1-3.7,3.8
		c0.1,9.2,0,18.3,0,27.5c0,3.2-0.1,6.3,0.2,9.5c1.4,16.9,9.2,29.1,25.6,35c-68.3,0-136.7,0-205,0c1.7-0.7,3.3-1.3,5-2
		c9.8-3.9,16.8-10.6,21.4-20.5c-5.1-1.3-9.5-2.3-13.8-3.4c-3-0.8-5.3-0.7-7.7,2.2c-4.5,5.4-10.8,6.6-17.3,4.5
		c-6.1-2-9.8-6.4-11.6-13c2.3,0,4.1,0,5.9,0c14.3,0,28.6,0,43,0c2.5,0,4.6,0.1,4.9-3.3c1.3-19.7-11.9-41.3-35.3-42.1
		c-15.7-0.6-27.3,7-34.1,20.8c-7.3,14.8-5.8,29.3,4,42.8c5.4,7.4,13.2,11.4,21.7,14.1c-50.3,0-100.7,0-151,0c4.5-2.8,9-5.6,13.6-8.5
		c0.2,2,0.5,4,0.7,6.3c6.1,0,12,0,18.4,0c0-23.7,0-47.2-0.1-70.6c0-0.9-1.3-2.6-2-2.7c-5.4-0.2-10.8-0.1-16.3-0.1
		c0.2,3.1,0.3,5.3,0.4,8.2c-6.5-6.2-13.1-10.1-21.4-10.3c-15.3-0.3-29.4,8.5-35.5,22.2c-6.3,14.2-3.3,31.6,7,42.8
		c6.1,6.6,13.8,10.1,22.1,12.7c-33.7,0-67.3,0-101,0c1.2-0.4,2.5-0.8,3.7-1.1c6.4-1.6,12.1-4.5,16.2-10c7.1-9.5,5.8-21.7-4.2-27.9
		c-7.2-4.5-15.7-6.8-23.6-10.2c-2.9-1.2-6.4-2.1-6.1-6.2c0.3-4.1,3.3-6,7-6.6c5.5-0.9,10.5,0.1,14.8,4.2c0.9,0.8,2.8,1.7,3.6,1.3
		c4.3-2.3,8.5-4.9,12.7-7.5c-7.4-11.4-22-16.6-35.5-13.3c-7.6,1.9-13.9,5.8-17.5,12.9c-5.9,11.6-1.2,23.7,11.9,29.4
		c6,2.6,12.7,3.7,18.9,6.2c2.2,0.9,5,4,4.8,5.7c-0.3,2.3-3,5.1-5.4,6c-7.5,2.9-13.5-0.4-18.9-6c-4.9,2.2-9.9,4.3-15,6.5
		c2.8,6.5,7.5,10.3,13.4,12.7c4.2,1.7,8.8,2.6,13.2,3.9c-21.7,0-43.3,0-65,0c1.8-0.7,3.7-1.3,5.5-2.1c9.6-3.9,16.7-10.4,21-20.4
		c-5-1.2-9.5-2.2-14-3.5c-3-0.9-5-0.4-7.2,2.2c-4.5,5.3-10.7,6.6-17.3,4.6c-6.1-1.9-9.9-6.3-11.7-13.1c2.2,0,4,0,5.7,0
		c14.5,0,29,0,43.5,0c2.3,0,4.2,0.1,4.4-3.1c1.5-20.6-12.8-41.8-35.6-42.4c-27.9-0.7-46.8,29.9-34.6,55.8
		C-970.7,753.5-961.5,760.2-949.9,764z M-474.6,761.8c0-12.1,0.1-23.8-0.1-35.4c-0.1-4.6-0.4-9.4-1.5-13.8
		c-4.5-18.6-21.3-29.9-38.3-25.4c-4.7,1.3-8.9,4.7-13.4,7.1c-0.2-1.7-0.5-3.7-0.8-6.1c-4.5,0-8.6,0.3-12.8-0.1
		c-4.1-0.3-5.4,1-5.4,5.2c0.2,21.3,0.1,42.6,0.1,64c0,1.4,0.2,2.9,0.3,4.3c6.2,0,11.9,0,18.2,0c0-2.1,0-3.9,0-5.6
		c0.1-11.3-0.1-22.7,0.2-34c0.3-9.8,7-17.4,15.3-18.1c8.9-0.7,17,5.3,18.8,15.1c1.1,5.8,0.8,11.9,0.9,17.9c0.1,8.3,0,16.5,0,24.9
		C-486.5,761.8-480.9,761.8-474.6,761.8z M-670.3,740.3c-0.8-2.1-1.3-3.2-1.6-4.2c-5.3-14.7-10.6-29.3-16.1-44
		c-0.6-1.6-2.2-3.7-3.5-3.8c-5.6-0.4-11.2-0.2-17.3-0.2c0.7,2.1,1.2,3.6,1.7,5.2c6.1,17,12.3,34,18.5,51c2.1,5.8,2.8,13.8,6.9,16.6
		c4.4,3,12.2,0.8,18.4,1.2c3.5,0.2,5.2-0.9,6.4-4.4c5.8-16.5,11.9-32.8,17.8-49.2c2.4-6.6,4.7-13.3,7.2-20.5
		c-5.5,0-10.3,0.2-15.1-0.1c-3.4-0.2-4.9,1-6,4.2C-658.5,708-664.3,723.7-670.3,740.3z M-451.6,706.7c0,18.9,0,37,0,54.9
		c6.3,0,12,0,18.3,0c0-18.4,0-36.5,0-54.9c3.9,0,7.2-0.1,10.5,0c2.9,0.2,3.8-1.1,3.7-3.8c-0.2-3.7-0.2-7.3,0-11
		c0.1-2.8-0.9-3.9-3.7-3.8c-3.4,0.2-6.9,0-10.8,0c0-8,0-15.2,0-22.6c-6.3,0-12,0-18.2,0c0,7.6,0,14.9,0,22.4
		c-3.8,0.2-7.2,0.4-10.6,0.5c0,6.2,0,12,0,18.2C-458.9,706.7-455.6,706.7-451.6,706.7z M-299.1,688.2c-4.9,0-9.4,0.2-13.9-0.1
		c-3.9-0.3-4.7,1.3-4.7,4.9c0.1,21.6,0.1,43.3,0.1,64.9c0,1.3,0.2,2.5,0.4,3.6c6.3,0,12.2,0,18.3,0c0-12.9-0.1-25.3,0-37.8
		c0.1-10.1,5.2-17.8,13.4-19.2c4.1-0.7,8.6,0.6,13.4,1.1c0.8-5.5,1.6-11.8,2.5-18.2c-11.5-3-20.9-0.4-29.1,8.1
		C-298.9,692.9-299,690.9-299.1,688.2z M-1010.6,761.7c0-2.4,0-4.5,0-6.6c0.2-11.6-0.1-23.3,0.7-34.9c0.6-10,8.7-17,17.5-16.1
		c2.8,0.3,5.5,1.5,8.6,2.4c1-6.3,1.9-12.5,2.9-18.9c-11.3-3.1-20.9-0.6-29.2,8.1c-0.3-2.9-0.5-5-0.7-7.1c-6.1,0-11.8,0-17.7,0
		c0,24.6,0,48.8,0,73.2C-1022.6,761.7-1016.8,761.7-1010.6,761.7z"/>
	<path class="st2" d="M-626.9,309c-1.2,17.3-2.3,34.5-3.5,51.8c-1.5,20.4-3,40.8-4.5,61.2c-1.5,20.1-3,40.2-4.5,60.2
		c-1.5,20.1-3,40.2-4.5,60.2c-0.4,5.6-0.8,11.3-1.3,18c148.9-82.7,297.1-165,445.8-247.6c23.3,61.9,46.4,123.4,69.7,185.4
		c-6.6,2.5-13,5-19.9,7.6c-20.3-54.1-40.6-107.9-61.1-162.4c-152.8,84.9-305.2,169.5-458.7,254.7c6.2-83.9,12.4-166.7,18.6-250.5
		c-136.8,80.5-272.8,160.6-409.3,241c-3.7-6.3-7.1-12.1-10.8-18.3c11-6.5,21.8-13,32.7-19.3c135.5-79.7,270.9-159.5,406.4-239.2
		c1.4-0.8,2.6-1.9,3.9-2.9C-627.5,309-627.2,309-626.9,309z"/>
	<path class="st2" d="M-763.9,764c-8.3-2.6-16-6.1-22.1-12.7c-10.3-11.2-13.2-28.6-7-42.8c6.1-13.7,20.2-22.6,35.5-22.2
		c8.3,0.2,14.9,4.1,21.4,10.3c-0.2-3-0.3-5.1-0.4-8.2c5.5,0,10.9-0.1,16.3,0.1c0.7,0,2,1.7,2,2.7c0.1,23.4,0.1,46.9,0.1,70.6
		c-6.4,0-12.3,0-18.4,0c-0.3-2.2-0.5-4.3-0.7-6.3c-4.6,2.9-9.1,5.7-13.6,8.5C-755.2,764-759.5,764-763.9,764z M-756.3,746.2
		c10.7,0,18.5-8.5,18.4-19.9c-0.1-11.9-9.5-22.2-20.4-22.3c-10.5-0.1-19.5,9-19.6,19.9C-778,735.6-767.7,746.2-756.3,746.2z"/>
	<path class="st2" d="M-234.9,764c-8.3-2.6-16-6.1-22.1-12.7c-10.3-11.3-13.3-28.7-7-42.8c6.2-13.8,20.2-22.6,35.5-22.2
		c8.3,0.2,14.9,4,21.4,10.3c-0.2-3-0.3-5.1-0.4-8.2c5.5,0,10.9-0.1,16.3,0.1c0.7,0,2,1.7,2,2.7c0.1,23.4,0.1,46.9,0.1,70.6
		c-6.4,0-12.3,0-18.4,0c-0.3-2.2-0.5-4.3-0.7-6.3c-4.6,2.9-9.1,5.7-13.6,8.5C-226.2,764-230.5,764-234.9,764z M-227.4,746.2
		c10.7,0.1,18.6-8.4,18.5-19.8c0-11.9-9.4-22.2-20.3-22.4c-10.5-0.2-19.5,8.8-19.7,19.7C-249.1,735.4-238.8,746.2-227.4,746.2z"/>
	<path class="st2" d="M-599.9,764c-8.5-2.8-16.3-6.7-21.7-14.1c-9.8-13.4-11.3-27.9-4-42.8c6.9-13.8,18.4-21.4,34.1-20.8
		c23.4,0.8,36.6,22.4,35.3,42.1c-0.2,3.4-2.4,3.3-4.9,3.3c-14.3,0-28.6,0-43,0c-1.8,0-3.6,0-5.9,0c1.8,6.7,5.6,11.1,11.6,13
		c6.5,2.1,12.8,0.9,17.3-4.5c2.4-2.9,4.6-3,7.7-2.2c4.3,1.1,8.7,2.1,13.8,3.4c-4.6,9.9-11.6,16.6-21.4,20.5c-1.7,0.7-3.3,1.3-5,2
		C-590.5,764-595.2,764-599.9,764z M-576,717.5c-1.1-8.7-9.2-15.5-17.4-15.2c-8.4,0.3-16,7.4-16.3,15.2
		C-598.6,717.5-587.5,717.5-576,717.5z"/>
	<path class="st2" d="M-949.9,764c-11.7-3.8-20.9-10.5-26.2-22c-12.2-25.9,6.7-56.5,34.6-55.8c22.8,0.6,37.1,21.8,35.6,42.4
		c-0.2,3.2-2.2,3.1-4.4,3.1c-14.5,0-29,0-43.5,0c-1.8,0-3.6,0-5.7,0c1.8,6.8,5.6,11.2,11.7,13.1c6.6,2,12.7,0.7,17.3-4.6
		c2.2-2.6,4.2-3,7.2-2.2c4.4,1.3,9,2.2,14,3.5c-4.3,9.9-11.4,16.4-21,20.4c-1.8,0.7-3.6,1.4-5.5,2.1C-940.5,764-945.2,764-949.9,764
		z M-925.8,717.4c-0.7-8.4-9.2-15.5-17.5-15.1c-8.4,0.4-16.1,7.5-16.2,15.1C-948.3,717.4-937,717.4-925.8,717.4z"/>
	<path class="st2" d="M-380.9,764c-16.4-5.9-24.2-18.2-25.6-35c-0.3-3.1-0.2-6.3-0.2-9.5c0-9.2,0.1-18.3,0-27.5
		c0-2.7,0.8-3.9,3.7-3.8c4.8,0.2,9.6,0,15.1,0c0,3.7,0,7,0,10.3c0,9.2,0,18.3,0,27.5c0,11.9,7.5,20.2,18,20.3c9.9,0,16.9-8.1,17-20
		c0.1-10.8,0-21.6,0-32.5c0-1.6,0-3.3,0-5.2c6.1,0,11.8,0,17.9,0c0,24.4,0,48.6,0,73.1c-5.8,0-11.5,0-17.7,0c-0.1-2-0.2-4-0.3-5.9
		c-4.7,2.8-9.3,5.5-13.9,8.3C-371.5,764-376.2,764-380.9,764z"/>
	<path class="st2" d="M-870.9,764c-4.4-1.3-9-2.2-13.2-3.9c-5.8-2.3-10.6-6.1-13.4-12.7c5.1-2.2,10-4.4,15-6.5
		c5.4,5.6,11.5,8.9,18.9,6c2.3-0.9,5-3.7,5.4-6c0.2-1.7-2.6-4.9-4.8-5.7c-6.1-2.5-12.8-3.5-18.9-6.2c-13.1-5.7-17.8-17.8-11.9-29.4
		c3.6-7.1,9.9-11,17.5-12.9c13.6-3.3,28.1,1.9,35.5,13.3c-4.2,2.5-8.3,5.2-12.7,7.5c-0.8,0.4-2.7-0.5-3.6-1.3
		c-4.2-4.1-9.3-5.1-14.8-4.2c-3.7,0.6-6.7,2.5-7,6.6c-0.3,4.1,3.2,5,6.1,6.2c7.9,3.3,16.4,5.7,23.6,10.2c10,6.2,11.3,18.5,4.2,27.9
		c-4.1,5.5-9.8,8.3-16.2,10c-1.3,0.3-2.5,0.7-3.7,1.1C-866.9,764-868.9,764-870.9,764z"/>
	<path class="st2" d="M-149.9,764c-4.4-1.3-9-2.2-13.2-3.9c-5.8-2.4-10.6-6.1-13.3-12.7c4.6-2,8.9-4,13.4-5.6c1-0.4,2.9,0.6,4,1.5
		c4.7,3.7,9.6,5.7,15.7,4c3.3-0.9,6-2.3,6.4-6c0.4-4-2.5-5.5-5.7-6.5c-2.4-0.7-4.8-1.2-7.2-1.9c-3.5-1.1-7-2-10.4-3.5
		c-10.9-4.6-15.4-11.7-14.7-22.3c0.5-8.8,7.9-17.5,17.9-19.8c14.6-3.5,27.3-0.3,37.1,11.8c0,0.7,0,1.3,0,2
		c-4.7,2.4-9.3,4.8-14.1,7.2c-1.1-1.1-2.2-2.1-3.3-3c-4.9-3.8-10.4-4.6-15.9-2.1c-2,0.9-4.1,3.8-4.3,5.9c-0.1,1.6,2.4,4,4.3,5.2
		c1.9,1.2,4.4,1.3,6.6,2.1c10.8,3.6,21.6,7.4,26.8,18.9c0,3.7,0,7.3,0,11c-2.9,6.7-7.3,12.1-14.3,14.9c-3.1,1.3-6.5,2.1-9.7,3.1
		C-145.9,764-147.9,764-149.9,764z"/>
	<path class="st2" d="M-1084.9,688c3.3,0,6.6,0,10.7,0c0-7.5,0-14.9,0-22.5c6.3,0,11.9,0,18.2,0c0,7.5,0,14.9,0,22.7
		c4.9,0,9.2,0,13.8,0c0,6.3,0,12.2,0,18.5c-4.4,0-8.7,0-13.5,0c0,18.5,0,36.6,0,55c-6.2,0-12,0-18.3,0c0-18,0-36.1,0-54.6
		c-4,0-7.4,0-10.8,0C-1084.9,700.6-1084.9,694.3-1084.9,688z"/>
	<path class="st1" d="M-119.9,735c-5.2-11.5-15.9-15.3-26.8-18.9c-2.2-0.7-4.7-0.9-6.6-2.1c-1.9-1.2-4.4-3.5-4.3-5.2
		c0.2-2.1,2.3-5,4.3-5.9c5.5-2.5,11-1.7,15.9,2.1c1.2,0.9,2.2,2,3.3,3c4.8-2.4,9.4-4.8,14.1-7.2C-119.9,712.3-119.9,723.6-119.9,735
		z"/>
	<path class="st1" d="M-143.9,764c3.2-1,6.6-1.9,9.7-3.1c6.9-2.8,11.4-8.1,14.3-14.9c0,6,0,12,0,18C-127.9,764-135.9,764-143.9,764z
		"/>
	<path class="st2" d="M-474.6,761.8c-6.4,0-12,0-18.3,0c0-8.3,0.1-16.6,0-24.9c-0.1-6,0.1-12.1-0.9-17.9
		c-1.8-9.8-9.8-15.8-18.8-15.1c-8.4,0.7-15.1,8.3-15.3,18.1c-0.3,11.3-0.2,22.7-0.2,34c0,1.8,0,3.6,0,5.6c-6.3,0-12,0-18.2,0
		c-0.1-1.5-0.3-2.9-0.3-4.3c0-21.3,0.1-42.7-0.1-64c0-4.2,1.3-5.6,5.4-5.2c4.1,0.3,8.3,0.1,12.8,0.1c0.3,2.4,0.6,4.4,0.8,6.1
		c4.5-2.5,8.7-5.9,13.4-7.1c17-4.6,33.9,6.7,38.3,25.4c1.1,4.5,1.4,9.2,1.5,13.8C-474.4,738-474.6,749.7-474.6,761.8z"/>
	<path class="st2" d="M-670.3,740.3c6-16.6,11.9-32.3,17.4-48.1c1.1-3.2,2.6-4.4,6-4.2c4.8,0.3,9.6,0.1,15.1,0.1
		c-2.5,7.1-4.8,13.8-7.2,20.5c-5.9,16.4-12.1,32.7-17.8,49.2c-1.2,3.5-2.9,4.6-6.4,4.4c-6.3-0.4-14,1.8-18.4-1.2
		c-4.2-2.8-4.8-10.8-6.9-16.6c-6.2-17-12.3-34-18.5-51c-0.6-1.5-1-3.1-1.7-5.2c6.1,0,11.7-0.2,17.3,0.2c1.3,0.1,2.9,2.3,3.5,3.8
		c5.5,14.6,10.7,29.3,16.1,44C-671.6,737.1-671.1,738.2-670.3,740.3z"/>
	<path class="st2" d="M-451.6,706.7c-4.1,0-7.3,0-10.9,0c0-6.2,0-12,0-18.2c3.4-0.2,6.8-0.3,10.6-0.5c0-7.5,0-14.8,0-22.4
		c6.2,0,11.9,0,18.2,0c0,7.4,0,14.7,0,22.6c4,0,7.4,0.1,10.8,0c2.8-0.1,3.9,1,3.7,3.8c-0.2,3.7-0.2,7.3,0,11c0.1,2.7-0.8,4-3.7,3.8
		c-3.3-0.2-6.6,0-10.5,0c0,18.4,0,36.5,0,54.9c-6.3,0-12,0-18.3,0C-451.6,743.7-451.6,725.6-451.6,706.7z"/>
	<path class="st2" d="M-299.1,688.2c0.2,2.7,0.3,4.6,0.4,7.4c8.3-8.5,17.7-11.1,29.1-8.1c-0.9,6.4-1.8,12.7-2.5,18.2
		c-4.7-0.4-9.2-1.8-13.4-1.1c-8.2,1.4-13.3,9.1-13.4,19.2c-0.1,12.5,0,24.9,0,37.8c-6.1,0-12,0-18.3,0c-0.1-1.1-0.4-2.4-0.4-3.6
		c0-21.6,0.1-43.3-0.1-64.9c0-3.6,0.8-5.2,4.7-4.9C-308.6,688.5-304.1,688.2-299.1,688.2z"/>
	<path class="st2" d="M-1010.6,761.7c-6.3,0-12,0-18,0c0-24.4,0-48.6,0-73.2c5.9,0,11.6,0,17.7,0c0.2,2.1,0.4,4.2,0.7,7.1
		c8.4-8.7,17.9-11.2,29.2-8.1c-1,6.4-1.9,12.6-2.9,18.9c-3-0.9-5.8-2.1-8.6-2.4c-8.7-0.9-16.8,6.1-17.5,16.1
		c-0.8,11.6-0.5,23.3-0.7,34.9C-1010.6,757.2-1010.6,759.3-1010.6,761.7z"/>
	<path class="st1" d="M-756.3,746.2c-11.4,0-21.7-10.6-21.6-22.4c0.1-10.8,9.1-20,19.6-19.9c11,0.1,20.3,10.3,20.4,22.3
		C-737.8,737.7-745.6,746.2-756.3,746.2z"/>
	<path class="st1" d="M-227.4,746.2c-11.4-0.1-21.6-10.8-21.5-22.5c0.2-10.9,9.2-19.9,19.7-19.7c11,0.2,20.3,10.5,20.3,22.4
		C-208.8,737.8-216.7,746.3-227.4,746.2z"/>
	<path class="st1" d="M-576,717.5c-11.5,0-22.6,0-33.7,0c0.3-7.8,7.9-14.9,16.3-15.2C-585.2,702-577.1,708.8-576,717.5z"/>
	<path class="st1" d="M-925.8,717.4c-11.2,0-22.4,0-33.6,0c0.1-7.6,7.7-14.7,16.2-15.1C-935,701.9-926.6,709.1-925.8,717.4z"/>
</g>
<g id="RoundIcon">
	<circle class="st3" cx="-603.4" cy="500" r="500"/>
	<path d="M464.5,22.4c-1.2,17.3-2.3,34.5-3.5,51.8c-1.5,20.4-3,40.8-4.5,61.2c-1.5,20.1-3,40.2-4.5,60.2c-1.5,20.1-3,40.2-4.5,60.2
		c-0.4,5.6-0.8,11.3-1.3,18c148.9-82.7,297.1-165,445.8-247.6c23.3,61.9,46.4,123.4,69.7,185.4c-6.6,2.5-13,5-19.9,7.6
		c-20.3-54.1-40.6-107.9-61.1-162.4c-152.8,84.9-305.2,169.5-458.7,254.7c6.2-83.9,12.4-166.7,18.6-250.5
		c-136.8,80.5-272.8,160.6-409.3,241c-3.7-6.3-7.1-12.1-10.8-18.3c11-6.5,21.8-13,32.7-19.3C188.7,184.7,324.1,105,459.6,25.3
		c1.4-0.8,2.6-1.9,3.9-2.9C463.9,22.4,464.2,22.4,464.5,22.4z"/>
	<text transform="matrix(1 0 0 1 -1059.9219 656.1436)" class="st0" style="font-family:'Outfit-Regular'; font-size:144px;">tres aventuras</text>
</g>
</svg>
